<svg xmlns="http://www.w3.org/2000/svg" viewBox="0 0 48 48" width="48" height="48" fill="none">
    <defs>
        <!-- Ocean Blue Gradient -->
        <linearGradient id="shieldGrad" x1="0" y1="4" x2="0" y2="44">
            <stop offset="0%" stop-color="#3B82F6" />
            <stop offset="100%" stop-color="#1E40AF" />
        </linearGradient>

        <!-- Subtle depth -->
        <radialGradient id="innerGlow" cx="50%" cy="28%" r="75%">
            <stop offset="0%" stop-color="#60A5FA" stop-opacity="0.22" />
            <stop offset="100%" stop-color="#1E3A8A" stop-opacity="0" />
        </radialGradient>

        <!-- Document -->
        <linearGradient id="docGrad" x1="16" y1="14" x2="34" y2="36">
            <stop offset="0%" stop-color="#FFFFFF" />
            <stop offset="100%" stop-color="#EFF4FF" />
        </linearGradient>

        <!-- Highlight -->
        <linearGradient id="highlight" x1="0" y1="0" x2="1" y2="1">
            <stop offset="0%" stop-color="#FFFFFF" stop-opacity="0.20" />
            <stop offset="100%" stop-color="#FFFFFF" stop-opacity="0" />
        </linearGradient>
    </defs>

    <!-- OUTER SHIELD (reference geometry) -->
    <path d="M24 2
       L41 9.5
       V25.5
       C41 37 32.5 43 24 46
       C15.5 43 7 37 7 25.5
       V9.5
       L24 2Z" fill="url(#shieldGrad)" stroke="rgba(255,255,255,0.10)" stroke-width="0.6" />

    <!-- INNER GLOW -->
    <path d="M24 2
       L41 9.5
       V25.5
       C41 37 32.5 43 24 46
       C15.5 43 7 37 7 25.5
       V9.5
       L24 2Z" fill="url(#innerGlow)" />

    <!-- 🔥 TRUE INSET HIGHLIGHT (mathematically aligned) -->
    <path d="M24 4.4
       L38.6 10.9
       V24.9
       C38.6 34.2 31.8 39.6 24 42
       V4.4Z" fill="url(#highlight)" />

    <!-- DOCUMENT -->
    <g>
        <path d="M16 14
         C16 13.4 16.4 13 17 13
         H27.5
         L32 17.5
         V33
         C32 33.6 31.6 34 31 34
         H17
         C16.4 34 16 33.6 16 33
         V14Z" fill="url(#docGrad)" stroke="#DBEAFE" stroke-width="0.7" />

        <!-- Fold -->
        <path d="M27.5 13V17.5H32" fill="#DBEAFE" />
    </g>

    <!-- BINARY (perfect visual balance) -->
    <g>
        <!-- Row 1 -->
        <circle cx="20" cy="21" r="1" fill="#1D4ED8" />
        <circle cx="24" cy="21" r="1" fill="#93C5FD" />
        <circle cx="28" cy="21" r="1" fill="#1D4ED8" />

        <!-- Row 2 -->
        <circle cx="20" cy="25" r="1" fill="#93C5FD" />
        <circle cx="24" cy="25" r="1" fill="#1D4ED8" />
        <circle cx="28" cy="25" r="1" fill="#93C5FD" />

        <!-- Row 3 -->
        <circle cx="20" cy="29" r="1" fill="#1D4ED8" />
        <circle cx="24" cy="29" r="1" fill="#93C5FD" />
        <circle cx="28" cy="29" r="1" fill="#1D4ED8" />
    </g>
</svg>