<?xml version="1.0" encoding="UTF-8" standalone="no"?>
<svg xmlns="http://www.w3.org/2000/svg" xmlns:xlink="http://www.w3.org/1999/xlink" width="100%" height="100%" viewBox="0 0 144 144" role="img" aria-label="CloakPDF" style="fill-rule:evenodd;clip-rule:evenodd;">
    <defs>
        <linearGradient id="bg" gradientUnits="userSpaceOnUse" x1="72" y1="8" x2="72" y2="136">
            <stop offset="0" stop-color="rgb(59,130,246)"/>
            <stop offset="1" stop-color="rgb(29,78,216)"/>
        </linearGradient>
        <radialGradient id="bloom" gradientUnits="userSpaceOnUse" cx="72" cy="55" r="90">
            <stop offset="0" stop-color="white" stop-opacity="0.3"/>
            <stop offset="1" stop-color="white" stop-opacity="0"/>
        </radialGradient>
        <path id="shield" d="M72,30L38,44L38,76C38,93.333 49.333,107.333 72,118C94.667,107.333 106,93.333 106,76L106,44L72,30Z"/>
        <clipPath id="shieldClip">
            <path d="M72,30L38,44L38,76C38,93.333 49.333,107.333 72,118C94.667,107.333 106,93.333 106,76L106,44L72,30Z"/>
        </clipPath>
    </defs>

    <!-- Inset circle (not full-bleed) — favicons aren't masked by the
         OS launcher, so the circle silhouette reads more cleanly in
         the browser tab than a full-bleed square would. -->
    <circle cx="72" cy="72" r="64" fill="url(#bg)"/>
    <circle cx="72" cy="72" r="64" fill="url(#bloom)"/>

    <use href="#shield" fill="white" fill-opacity="0.18"/>
    <use href="#shield" fill="none" stroke="white" stroke-opacity="0.55" stroke-width="3"/>
    <g clip-path="url(#shieldClip)" stroke="white" stroke-width="6" stroke-linecap="round">
        <line x1="52" y1="60" x2="92" y2="60"/>
        <line x1="52" y1="76" x2="84" y2="76" stroke-opacity="0.75"/>
        <line x1="52" y1="92" x2="76" y2="92" stroke-opacity="0.5"/>
    </g>
</svg>
