<svg xmlns="http://www.w3.org/2000/svg" viewBox="0 0 48 48" width="512" height="512" fill="none">
    <defs>
        <linearGradient id="shieldGrad" x1="0" y1="4" x2="0" y2="44">
            <stop offset="0%" stop-color="#3B82F6" />
            <stop offset="100%" stop-color="#1E40AF" />
        </linearGradient>

        <radialGradient id="innerGlow" cx="50%" cy="28%" r="75%">
            <stop offset="0%" stop-color="#60A5FA" stop-opacity="0.22" />
            <stop offset="100%" stop-color="#1E3A8A" stop-opacity="0" />
        </radialGradient>

        <linearGradient id="docGrad" x1="16" y1="14" x2="34" y2="36">
            <stop offset="0%" stop-color="#FFFFFF" />
            <stop offset="100%" stop-color="#EFF4FF" />
        </linearGradient>

        <linearGradient id="highlight" x1="0" y1="0" x2="1" y2="1">
            <stop offset="0%" stop-color="#FFFFFF" stop-opacity="0.20" />
            <stop offset="100%" stop-color="#FFFFFF" stop-opacity="0" />
        </linearGradient>
    </defs>

    <!-- OUTER SHIELD -->
    <path d="M24 2
       L42 9.5
       V25.5
       C42 37 33 43 24 46
       C15 43 6 37 6 25.5
       V9.5
       L24 2Z" fill="url(#shieldGrad)" stroke="rgba(255,255,255,0.10)" stroke-width="0.6" />

    <!-- INNER GLOW -->
    <path d="M24 2
       L42 9.5
       V25.5
       C42 37 33 43 24 46
       C15 43 6 37 6 25.5
       V9.5
       L24 2Z" fill="url(#innerGlow)" />

    <!-- 🔥 OPTICALLY PERFECT HIGHLIGHT -->
    <path d="M24 4.2
       L40.05 10.7
       V24.8
       C40.05 35.6 31.8 41.4 24 43.6
       V4.2Z" fill="url(#highlight)" />

    <!-- DOCUMENT -->
    <g>
        <path d="M15.5 14
         C15.5 13.4 15.9 13 16.5 13
         H27.8
         L32.5 17.5
         V33
         C32.5 33.6 32.1 34 31.5 34
         H16.5
         C15.9 34 15.5 33.6 15.5 33
         V14Z" fill="url(#docGrad)" stroke="#DBEAFE" stroke-width="0.7" />

        <path d="M27.8 13V17.5H32.5" fill="#DBEAFE" />
    </g>

    <!-- BINARY -->
    <g>
        <circle cx="19.5" cy="21" r="1" fill="#1D4ED8" />
        <circle cx="24" cy="21" r="1" fill="#93C5FD" />
        <circle cx="28.5" cy="21" r="1" fill="#1D4ED8" />

        <circle cx="19.5" cy="25" r="1" fill="#93C5FD" />
        <circle cx="24" cy="25" r="1" fill="#1D4ED8" />
        <circle cx="28.5" cy="25" r="1" fill="#93C5FD" />

        <circle cx="19.5" cy="29" r="1" fill="#1D4ED8" />
        <circle cx="24" cy="29" r="1" fill="#93C5FD" />
        <circle cx="28.5" cy="29" r="1" fill="#1D4ED8" />
    </g>
</svg>