<svg xmlns="http://www.w3.org/2000/svg" viewBox="0 0 48 48" width="512" height="512" fill="none" role="img" aria-label="CloakPDF">
    <defs>
        <linearGradient id="shieldGrad" x1="0" y1="0" x2="0" y2="1">
            <stop offset="0%" stop-color="#3B82F6" />
            <stop offset="100%" stop-color="#1D4ED8" />
        </linearGradient>
    </defs>

    <!-- SHIELD -->
    <path d="M24 3
       L41 10
       V25
       C41 36 33 42.5 24 45.5
       C15 42.5 7 36 7 25
       V10
       L24 3Z"
          fill="url(#shieldGrad)" />

    <!-- DOCUMENT (rounded rect with top-right corner cut off along the fold line) -->
    <path d="M16.5 12
             L28 12
             L33 17
             L33 34.5
             A1.5 1.5 0 0 1 31.5 36
             L16.5 36
             A1.5 1.5 0 0 1 15 34.5
             L15 13.5
             A1.5 1.5 0 0 1 16.5 12
             Z"
          fill="#FFFFFF"
          opacity="0.95" />

    <!-- FOLDED FLAP (mirrored across the crease — the rounded corner is now on the inside) -->
    <path d="M28 12
             L28 15.5
             A1.5 1.5 0 0 0 29.5 17
             L33 17
             Z"
          fill="#DBEAFE"
          opacity="0.85" />

    <!-- REDACTED LINES -->
    <g fill="#1D4ED8" opacity="0.8">
        <rect x="19" y="19" width="10" height="1.8" rx="0.9" />
        <rect x="19" y="23" width="8"  height="1.8" rx="0.9" />
        <rect x="19" y="27" width="11" height="1.8" rx="0.9" />
        <rect x="19" y="31" width="6"  height="1.8" rx="0.9" />
    </g>
</svg>
