<svg xmlns="http://www.w3.org/2000/svg" width="1200" height="630" viewBox="0 0 1200 630">
  <defs>
    <linearGradient id="bg" x1="0" y1="0" x2="1200" y2="630" gradientUnits="userSpaceOnUse">
      <stop offset="0%" stop-color="#F8FAFC" />
      <stop offset="50%" stop-color="#EEF2FF" />
      <stop offset="100%" stop-color="#F8FAFC" />
    </linearGradient>
    <linearGradient id="shieldGrad" x1="0" y1="4" x2="0" y2="44">
      <stop offset="0%" stop-color="#3B82F6" />
      <stop offset="100%" stop-color="#1E40AF" />
    </linearGradient>
    <radialGradient id="innerGlow" cx="50%" cy="28%" r="75%">
      <stop offset="0%" stop-color="#60A5FA" stop-opacity="0.22" />
      <stop offset="100%" stop-color="#1E3A8A" stop-opacity="0" />
    </radialGradient>
    <linearGradient id="docGrad" x1="16" y1="14" x2="34" y2="36">
      <stop offset="0%" stop-color="#FFFFFF" />
      <stop offset="100%" stop-color="#EFF4FF" />
    </linearGradient>
    <linearGradient id="highlight" x1="0" y1="0" x2="1" y2="1">
      <stop offset="0%" stop-color="#FFFFFF" stop-opacity="0.20" />
      <stop offset="100%" stop-color="#FFFFFF" stop-opacity="0" />
    </linearGradient>
    <radialGradient id="glow" cx="50%" cy="40%" r="45%">
      <stop offset="0%" stop-color="#818CF8" stop-opacity="0.08" />
      <stop offset="100%" stop-color="#818CF8" stop-opacity="0" />
    </radialGradient>
  </defs>

  <!-- Background -->
  <rect width="1200" height="630" fill="url(#bg)" />
  <rect width="1200" height="630" fill="url(#glow)" />

  <!-- Logo (scaled 3.5x) -->
  <g transform="translate(516, 30) scale(3.5)">
    <path d="M24 2 L42 9.5 V25.5 C42 37 33 43 24 46 C15 43 6 37 6 25.5 V9.5 L24 2Z" fill="url(#shieldGrad)" stroke="rgba(255,255,255,0.10)" stroke-width="0.6" />
    <path d="M24 2 L42 9.5 V25.5 C42 37 33 43 24 46 C15 43 6 37 6 25.5 V9.5 L24 2Z" fill="url(#innerGlow)" />
    <path d="M24 4.2 L40.05 10.7 V24.8 C40.05 35.6 31.8 41.4 24 43.6 V4.2Z" fill="url(#highlight)" />
    <g>
      <path d="M15.5 14 C15.5 13.4 15.9 13 16.5 13 H27.8 L32.5 17.5 V33 C32.5 33.6 32.1 34 31.5 34 H16.5 C15.9 34 15.5 33.6 15.5 33 V14Z" fill="url(#docGrad)" stroke="#DBEAFE" stroke-width="0.7" />
      <path d="M27.8 13V17.5H32.5" fill="#DBEAFE" />
    </g>
    <g>
      <circle cx="19.5" cy="21" r="1" fill="#1D4ED8" />
      <circle cx="24" cy="21" r="1" fill="#93C5FD" />
      <circle cx="28.5" cy="21" r="1" fill="#1D4ED8" />
      <circle cx="19.5" cy="25" r="1" fill="#93C5FD" />
      <circle cx="24" cy="25" r="1" fill="#1D4ED8" />
      <circle cx="28.5" cy="25" r="1" fill="#93C5FD" />
      <circle cx="19.5" cy="29" r="1" fill="#1D4ED8" />
      <circle cx="24" cy="29" r="1" fill="#93C5FD" />
      <circle cx="28.5" cy="29" r="1" fill="#1D4ED8" />
    </g>
  </g>

  <!-- App name -->
  <text x="600" y="270" text-anchor="middle" font-family="system-ui, -apple-system, 'Segoe UI', sans-serif" font-size="64" font-weight="700" fill="#1E293B" letter-spacing="-1.5">CloakPDF</text>

  <!-- Tagline -->
  <text x="600" y="310" text-anchor="middle" font-family="system-ui, -apple-system, 'Segoe UI', sans-serif" font-size="22" font-weight="400" fill="#6366F1">30+ Offline PDF Tools — 100% Private, Runs in Your Browser</text>

  <!-- Row 1: Organise & Edit — blue (blue-50 #EFF6FF, blue-200 #BFDBFE, blue-700 #1D4ED8) -->
  <g font-family="system-ui, -apple-system, 'Segoe UI', sans-serif" font-size="13" font-weight="500">
    <rect x="118" y="350" width="80" height="28" rx="14" fill="#EFF6FF" stroke="#BFDBFE" stroke-width="1" />
    <text x="158" y="369" text-anchor="middle" fill="#1D4ED8">Merge</text>

    <rect x="212" y="350" width="70" height="28" rx="14" fill="#EFF6FF" stroke="#BFDBFE" stroke-width="1" />
    <text x="247" y="369" text-anchor="middle" fill="#1D4ED8">Split</text>

    <rect x="296" y="350" width="90" height="28" rx="14" fill="#EFF6FF" stroke="#BFDBFE" stroke-width="1" />
    <text x="341" y="369" text-anchor="middle" fill="#1D4ED8">Reorder</text>

    <rect x="400" y="350" width="80" height="28" rx="14" fill="#EFF6FF" stroke="#BFDBFE" stroke-width="1" />
    <text x="440" y="369" text-anchor="middle" fill="#1D4ED8">Delete</text>

    <rect x="494" y="350" width="80" height="28" rx="14" fill="#EFF6FF" stroke="#BFDBFE" stroke-width="1" />
    <text x="534" y="369" text-anchor="middle" fill="#1D4ED8">Rotate</text>

    <rect x="588" y="350" width="90" height="28" rx="14" fill="#EFF6FF" stroke="#BFDBFE" stroke-width="1" />
    <text x="633" y="369" text-anchor="middle" fill="#1D4ED8">Extract</text>

    <rect x="692" y="350" width="100" height="28" rx="14" fill="#EFF6FF" stroke="#BFDBFE" stroke-width="1" />
    <text x="742" y="369" text-anchor="middle" fill="#1D4ED8">Duplicate</text>

    <rect x="806" y="350" width="90" height="28" rx="14" fill="#EFF6FF" stroke="#BFDBFE" stroke-width="1" />
    <text x="851" y="369" text-anchor="middle" fill="#1D4ED8">Reverse</text>

    <rect x="910" y="350" width="110" height="28" rx="14" fill="#EFF6FF" stroke="#BFDBFE" stroke-width="1" />
    <text x="965" y="369" text-anchor="middle" fill="#1D4ED8">Bookmarks</text>
  </g>

  <!-- Row 2: Transform & Convert — violet (violet-50 #F5F3FF, violet-200 #DDD6FE, violet-700 #6D28D9) -->
  <g font-family="system-ui, -apple-system, 'Segoe UI', sans-serif" font-size="13" font-weight="500">
    <rect x="100" y="392" width="105" height="28" rx="14" fill="#F5F3FF" stroke="#DDD6FE" stroke-width="1" />
    <text x="152" y="411" text-anchor="middle" fill="#6D28D9">Compress</text>

    <rect x="219" y="392" width="110" height="28" rx="14" fill="#F5F3FF" stroke="#DDD6FE" stroke-width="1" />
    <text x="274" y="411" text-anchor="middle" fill="#6D28D9">PDF to Image</text>

    <rect x="343" y="392" width="115" height="28" rx="14" fill="#F5F3FF" stroke="#DDD6FE" stroke-width="1" />
    <text x="400" y="411" text-anchor="middle" fill="#6D28D9">Images to PDF</text>

    <rect x="472" y="392" width="65" height="28" rx="14" fill="#F5F3FF" stroke="#DDD6FE" stroke-width="1" />
    <text x="504" y="411" text-anchor="middle" fill="#6D28D9">OCR</text>

    <rect x="551" y="392" width="70" height="28" rx="14" fill="#F5F3FF" stroke="#DDD6FE" stroke-width="1" />
    <text x="586" y="411" text-anchor="middle" fill="#6D28D9">Crop</text>

    <rect x="635" y="392" width="80" height="28" rx="14" fill="#F5F3FF" stroke="#DDD6FE" stroke-width="1" />
    <text x="675" y="411" text-anchor="middle" fill="#6D28D9">Flatten</text>

    <rect x="729" y="392" width="70" height="28" rx="14" fill="#F5F3FF" stroke="#DDD6FE" stroke-width="1" />
    <text x="764" y="411" text-anchor="middle" fill="#6D28D9">N-up</text>

    <rect x="813" y="392" width="90" height="28" rx="14" fill="#F5F3FF" stroke="#DDD6FE" stroke-width="1" />
    <text x="858" y="411" text-anchor="middle" fill="#6D28D9">Repair</text>

    <rect x="917" y="392" width="105" height="28" rx="14" fill="#F5F3FF" stroke="#DDD6FE" stroke-width="1" />
    <text x="969" y="411" text-anchor="middle" fill="#6D28D9">Grayscale</text>
  </g>

  <!-- Row 3: Annotate & Sign — emerald (emerald-50 #ECFDF5, emerald-200 #A7F3D0, emerald-700 #047857) -->
  <g font-family="system-ui, -apple-system, 'Segoe UI', sans-serif" font-size="13" font-weight="500">
    <rect x="195" y="434" width="95" height="28" rx="14" fill="#ECFDF5" stroke="#A7F3D0" stroke-width="1" />
    <text x="242" y="453" text-anchor="middle" fill="#047857">Signature</text>

    <rect x="304" y="434" width="90" height="28" rx="14" fill="#ECFDF5" stroke="#A7F3D0" stroke-width="1" />
    <text x="349" y="453" text-anchor="middle" fill="#047857">Fill Form</text>

    <rect x="408" y="434" width="110" height="28" rx="14" fill="#ECFDF5" stroke="#A7F3D0" stroke-width="1" />
    <text x="463" y="453" text-anchor="middle" fill="#047857">Watermark</text>

    <rect x="532" y="434" width="125" height="28" rx="14" fill="#ECFDF5" stroke="#A7F3D0" stroke-width="1" />
    <text x="594" y="453" text-anchor="middle" fill="#047857">Page Numbers</text>

    <rect x="671" y="434" width="80" height="28" rx="14" fill="#ECFDF5" stroke="#A7F3D0" stroke-width="1" />
    <text x="711" y="453" text-anchor="middle" fill="#047857">Bates #</text>

    <rect x="765" y="434" width="130" height="28" rx="14" fill="#ECFDF5" stroke="#A7F3D0" stroke-width="1" />
    <text x="830" y="453" text-anchor="middle" fill="#047857">Header/Footer</text>
  </g>

  <!-- Row 4: Security & Properties — amber (amber-50 #FFFBEB, amber-200 #FDE68A, amber-700 #B45309) -->
  <g font-family="system-ui, -apple-system, 'Segoe UI', sans-serif" font-size="13" font-weight="500">
    <rect x="290" y="476" width="100" height="28" rx="14" fill="#FFFBEB" stroke="#FDE68A" stroke-width="1" />
    <text x="340" y="495" text-anchor="middle" fill="#B45309">Password</text>

    <rect x="404" y="476" width="80" height="28" rx="14" fill="#FFFBEB" stroke="#FDE68A" stroke-width="1" />
    <text x="444" y="495" text-anchor="middle" fill="#B45309">Redact</text>

    <rect x="498" y="476" width="100" height="28" rx="14" fill="#FFFBEB" stroke="#FDE68A" stroke-width="1" />
    <text x="548" y="495" text-anchor="middle" fill="#B45309">Metadata</text>

    <rect x="612" y="476" width="100" height="28" rx="14" fill="#FFFBEB" stroke="#FDE68A" stroke-width="1" />
    <text x="662" y="495" text-anchor="middle" fill="#B45309">Inspector</text>

    <rect x="726" y="476" width="100" height="28" rx="14" fill="#FFFBEB" stroke="#FDE68A" stroke-width="1" />
    <text x="776" y="495" text-anchor="middle" fill="#B45309">Stamp</text>
  </g>

  <!-- Privacy line -->
  <text x="600" y="560" text-anchor="middle" font-family="system-ui, -apple-system, 'Segoe UI', sans-serif" font-size="15" font-weight="500" fill="#64748B">No uploads  ·  No servers  ·  Works offline  ·  Open source</text>

  <!-- Bottom accent line -->
  <rect x="450" y="585" width="300" height="3" rx="1.5" fill="#818CF8" fill-opacity="0.3" />
</svg>
