<?xml version="1.0" encoding="UTF-8" standalone="no"?>
<svg xmlns="http://www.w3.org/2000/svg" xmlns:xlink="http://www.w3.org/1999/xlink"
     viewBox="0 0 1200 630" width="1200" height="630"
     font-family="-apple-system, BlinkMacSystemFont, 'Segoe UI', 'Helvetica Neue', Arial, sans-serif"
     style="fill-rule:evenodd;clip-rule:evenodd;">

  <defs>
    <!-- Grainient-mirrored backdrop. The runtime shader (Grainient.tsx)
         blends three colors on a warped sine field with film grain on
         top. Static SVG can't run the shader, so the look is faked with:
           1. A soft cool-slate base wash (color3 of GRAINIENT_LIGHT).
           2. Two diagonal radial anchors that approximate the warped
              ribbon — color1 (Tailwind blue-100 pale) flanking from
              one corner, color2 (the brand blue ribbon) drifting from
              the opposite corner.
           3. A coarse + a fine grain layer multiplied over the field
              so the result reads as the same risograph-noise texture
              as the live page in browsers. -->

    <!-- Base wash — Tailwind blue-50 (GRAINIENT_LIGHT.color3) at the
         top, slightly cooler at the bottom. Keeps foreground type
         readable; chroma comes from the anchors below. -->
    <linearGradient id="base" x1="0" y1="0" x2="0" y2="1">
      <stop offset="0" stop-color="#eff4ff"/>
      <stop offset="1" stop-color="#dbe6f7"/>
    </linearGradient>

    <!-- Pale-blue flank (GRAINIENT_LIGHT.color1, blue-100). Anchors the
         top-left corner so the ribbon's cool side reads from there. -->
    <radialGradient id="flank" cx="0.18" cy="0.22" r="0.62">
      <stop offset="0" stop-color="#dbeafe" stop-opacity="0.95"/>
      <stop offset="0.5" stop-color="#dbeafe" stop-opacity="0.45"/>
      <stop offset="1" stop-color="#dbeafe" stop-opacity="0"/>
    </radialGradient>

    <!-- Brand-blue ribbon (GRAINIENT_LIGHT.color2 = #3B82F6). The live
         shader paints this as a warped diagonal stripe; here it's a
         soft off-center radial knocked back to ~22 % alpha so the
         brand reads as a hint, not a wall — same visual weight as
         saturation: 0.3 in the runtime config. -->
    <radialGradient id="ribbon" cx="0.74" cy="0.62" r="0.58">
      <stop offset="0" stop-color="#3b82f6" stop-opacity="0.22"/>
      <stop offset="0.45" stop-color="#3b82f6" stop-opacity="0.10"/>
      <stop offset="1" stop-color="#3b82f6" stop-opacity="0"/>
    </radialGradient>

    <!-- Secondary cool drift, bottom-left, gives the field asymmetry. -->
    <radialGradient id="drift" cx="0.05" cy="0.95" r="0.55">
      <stop offset="0" stop-color="#93c5fd" stop-opacity="0.30"/>
      <stop offset="1" stop-color="#93c5fd" stop-opacity="0"/>
    </radialGradient>

    <!-- Coarse grain — the dominant texture. baseFrequency tuned so
         the cell size reads as risograph grain at 1200 px width
         rather than as fine sandpaper. Output alpha ramped via the
         color matrix so the grain has presence without crushing the
         field. -->
    <filter id="grain-coarse" x="0" y="0" width="100%" height="100%">
      <feTurbulence type="fractalNoise" baseFrequency="0.55" numOctaves="2" stitchTiles="stitch" seed="3"/>
      <feColorMatrix values="0 0 0 0 0  0 0 0 0 0  0 0 0 0 0  0 0 0 0.85 0"/>
    </filter>

    <!-- Fine grain — finer cells layered on top of the coarse pass to
         break up any banding from the radial gradients and to push the
         texture to the same density as the runtime shader. -->
    <filter id="grain-fine" x="0" y="0" width="100%" height="100%">
      <feTurbulence type="fractalNoise" baseFrequency="2.4" numOctaves="2" stitchTiles="stitch" seed="7"/>
      <feColorMatrix values="0 0 0 0 0  0 0 0 0 0  0 0 0 0 0  0 0 0 0.6 0"/>
    </filter>

    <!-- CloakPDF brand mark gradient (matches favicon.svg) -->
    <linearGradient id="markBg" x1="0" y1="0" x2="0" y2="1">
      <stop offset="0" stop-color="#3b82f6"/>
      <stop offset="1" stop-color="#1d4ed8"/>
    </linearGradient>
    <radialGradient id="markGlow" cx="0.5" cy="0.36" r="0.7">
      <stop offset="0" stop-color="#ffffff" stop-opacity="0.3"/>
      <stop offset="1" stop-color="#ffffff" stop-opacity="0"/>
    </radialGradient>

    <!-- Cloakyard family mark gradient (matches cloakyard.svg) -->
    <linearGradient id="cyBg" x1="0" y1="0" x2="0" y2="1">
      <stop offset="0" stop-color="#10b981"/>
      <stop offset="0.5" stop-color="#6366f1"/>
      <stop offset="1" stop-color="#fb923c"/>
    </linearGradient>
    <radialGradient id="cyBloom" cx="0.5" cy="0.5" r="0.7">
      <stop offset="0" stop-color="#ffffff" stop-opacity="0.55"/>
      <stop offset="1" stop-color="#ffffff" stop-opacity="0"/>
    </radialGradient>

    <!-- Card surface tint — slightly more opaque than before so the
         beefed-up grain doesn't bleed through the tile labels. -->
    <linearGradient id="card" x1="0" y1="0" x2="0" y2="1">
      <stop offset="0" stop-color="#ffffff" stop-opacity="0.985"/>
      <stop offset="1" stop-color="#ffffff" stop-opacity="0.92"/>
    </linearGradient>

    <!-- CloakPDF brand mark (favicon.svg shape) -->
    <symbol id="brandmark" viewBox="0 0 144 144">
      <circle cx="72" cy="72" r="64" fill="url(#markBg)"/>
      <circle cx="72" cy="72" r="64" fill="url(#markGlow)"/>
      <path d="M72,30L38,44L38,76C38,93.333 49.333,107.333 72,118C94.667,107.333 106,93.333 106,76L106,44L72,30Z"
            fill="white" fill-opacity="0.18"/>
      <path d="M72,30L38,44L38,76C38,93.333 49.333,107.333 72,118C94.667,107.333 106,93.333 106,76L106,44L72,30Z"
            fill="none" stroke="white" stroke-opacity="0.55" stroke-width="3"/>
      <g stroke="white" stroke-width="6" stroke-linecap="round">
        <line x1="52" y1="60" x2="92" y2="60"/>
        <line x1="52" y1="76" x2="84" y2="76" stroke-opacity="0.75"/>
        <line x1="52" y1="92" x2="76" y2="92" stroke-opacity="0.5"/>
      </g>
    </symbol>

    <!-- Cloakyard family mark (cloakyard.svg shape) -->
    <symbol id="cloakyardmark" viewBox="0 0 144 144">
      <circle cx="72" cy="72" r="64" fill="url(#cyBg)"/>
      <circle cx="72" cy="72" r="64" fill="url(#cyBloom)"/>
      <path d="M 72 30 L 38 44 L 38 76 Q 38 102 72 118 Q 106 102 106 76 L 106 44 Z"
            fill="#ffffff" fill-opacity="0.18"/>
      <path d="M 72 30 L 38 44 L 38 76 Q 38 102 72 118 Q 106 102 106 76 L 106 44 Z"
            fill="none" stroke="#ffffff" stroke-width="3" stroke-opacity="0.65"/>
    </symbol>
  </defs>

  <!-- ─── Grainient-mirrored backdrop ─────────────────────────── -->
  <rect width="1200" height="630" fill="url(#base)"/>
  <rect width="1200" height="630" fill="url(#flank)"/>
  <rect width="1200" height="630" fill="url(#ribbon)"/>
  <rect width="1200" height="630" fill="url(#drift)"/>

  <!-- Grain stack. Coarse pass first (multiply, ~10 %), fine pass on
       top (overlay, ~7 %) — together they read as the same dense
       risograph noise the live shader produces. Both layers are
       isolated to the backdrop so foreground tiles stay crisp. -->
  <rect width="1200" height="630" filter="url(#grain-coarse)" opacity="0.10"
        style="mix-blend-mode: multiply"/>
  <rect width="1200" height="630" filter="url(#grain-fine)" opacity="0.07"
        style="mix-blend-mode: overlay"/>

  <!-- ─── Brand mark (top-center, 96 × 96) ─────────────────────── -->
  <g transform="translate(552 56)">
    <use href="#brandmark" width="96" height="96"/>
  </g>

  <!-- ─── Wordmark + tagline (font-size 56) ────────────────────── -->
  <g text-anchor="middle">
    <text x="600" y="218" font-size="56" font-weight="700"
          letter-spacing="-1.4" fill="#1e293b">Cloak<tspan fill="#2563eb">PDF</tspan></text>
    <text x="600" y="256" font-size="21" font-weight="500"
          letter-spacing="-0.3" fill="#475569">PDF tools that stay on your device</text>
  </g>

  <!-- ─── Feature tiles (2 × 2) ────────────────────────────────── -->
  <!-- Tile 1: Merge & Split -->
  <g>
    <rect x="220" y="310" width="340" height="62" rx="14"
          fill="url(#card)" stroke="rgba(37,99,235,0.20)" stroke-width="1"/>
    <rect x="240" y="326" width="30" height="30" rx="8" fill="#eff4ff"/>
    <g transform="translate(241 329)" stroke="#2563eb" stroke-width="2"
       fill="none" stroke-linecap="round" stroke-linejoin="round">
      <path d="M14 4v8a4 4 0 0 1-4 4H4"/>
      <path d="M14 20v-8a4 4 0 0 0-4-4H4"/>
      <path d="m17 13 3 3-3 3"/>
      <path d="m17 11 3-3-3-3"/>
    </g>
    <text x="288" y="337" font-size="17" font-weight="700" fill="#1e293b">Merge &amp; Split</text>
    <text x="288" y="358" font-size="12.5" fill="#475569">Combine, extract pages, reorder, delete</text>
  </g>

  <!-- Tile 2: Sign &amp; Secure -->
  <g>
    <rect x="640" y="310" width="340" height="62" rx="14"
          fill="url(#card)" stroke="rgba(37,99,235,0.20)" stroke-width="1"/>
    <rect x="660" y="326" width="30" height="30" rx="8" fill="#eff4ff"/>
    <g transform="translate(663 329)" stroke="#2563eb" stroke-width="2"
       fill="none" stroke-linecap="round" stroke-linejoin="round">
      <path d="M12 22s8-4 8-10V5l-8-3-8 3v7c0 6 8 10 8 10Z"/>
      <path d="M9 12l2 2 4-4"/>
    </g>
    <text x="708" y="337" font-size="17" font-weight="700" fill="#1e293b">Sign &amp; Secure</text>
    <text x="708" y="358" font-size="12.5" fill="#475569">Signatures, watermarks, password protect</text>
  </g>

  <!-- Tile 3: Redact &amp; OCR -->
  <g>
    <rect x="220" y="388" width="340" height="62" rx="14"
          fill="url(#card)" stroke="rgba(37,99,235,0.20)" stroke-width="1"/>
    <rect x="240" y="404" width="30" height="30" rx="8" fill="#eff4ff"/>
    <g transform="translate(243 407)" stroke="#2563eb" stroke-width="2"
       fill="none" stroke-linecap="round" stroke-linejoin="round">
      <path d="M9.88 9.88a3 3 0 1 0 4.24 4.24"/>
      <path d="M10.73 5.08A10.43 10.43 0 0 1 12 5c7 0 10 7 10 7a13.16 13.16 0 0 1-1.67 2.68"/>
      <path d="M6.61 6.61A13.526 13.526 0 0 0 2 12s3 7 10 7a9.74 9.74 0 0 0 5.39-1.61"/>
      <line x1="2" y1="2" x2="22" y2="22"/>
    </g>
    <text x="288" y="415" font-size="17" font-weight="700" fill="#1e293b">Redact &amp; OCR</text>
    <text x="288" y="436" font-size="12.5" fill="#475569">Black-bar redaction, searchable text via OCR</text>
  </g>

  <!-- Tile 4: Compress &amp; Convert -->
  <g>
    <rect x="640" y="388" width="340" height="62" rx="14"
          fill="url(#card)" stroke="rgba(37,99,235,0.20)" stroke-width="1"/>
    <rect x="660" y="404" width="30" height="30" rx="8" fill="#eff4ff"/>
    <g transform="translate(663 407)" stroke="#2563eb" stroke-width="2"
       fill="none" stroke-linecap="round" stroke-linejoin="round">
      <path d="M3 12h18"/>
      <path d="M3 6h18"/>
      <path d="M3 18h18"/>
    </g>
    <text x="708" y="415" font-size="17" font-weight="700" fill="#1e293b">Compress &amp; Convert</text>
    <text x="708" y="436" font-size="12.5" fill="#475569">Shrink files, PDF ↔ image, page numbers</text>
  </g>

  <!-- ─── Footer cluster ───────────────────────────────────────── -->

  <!-- Privacy strip -->
  <text x="600" y="488" text-anchor="middle"
        font-size="15" font-weight="600" fill="#334155" letter-spacing="0.1">
    No uploads &#160;·&#160; Works offline &#160;·&#160; 35+ tools &#160;·&#160; Open source
  </text>

  <!-- "Part of Cloakyard" mark -->
  <g transform="translate(508 510)">
    <use href="#cloakyardmark" width="40" height="40"/>
    <text x="52" y="26" font-size="15" font-weight="500" fill="#475569">Part of</text>
    <text x="105" y="26" font-size="15" font-weight="700" fill="#1e293b">Cloakyard</text>
  </g>

  <!-- URL chip -->
  <g transform="translate(458 572)">
    <rect x="0" y="3" width="284" height="36" rx="10"
          fill="#000000" fill-opacity="0.07"/>
    <rect width="284" height="36" rx="10"
          fill="#ffffff" fill-opacity="0.96"
          stroke="#2563eb" stroke-opacity="0.40" stroke-width="1"/>
    <g transform="translate(24 10)" stroke="#2563eb" stroke-width="1.7"
       fill="none" stroke-linecap="round" stroke-linejoin="round">
      <rect x="1" y="6" width="14" height="10" rx="2"/>
      <path d="M4 6V4a4 4 0 0 1 8 0v2"/>
    </g>
    <text y="23" font-size="14" letter-spacing="0.4">
      <tspan x="54" font-weight="500" fill="#94a3b8">https://</tspan>
      <tspan dx="4" font-weight="700" fill="#1e293b">pdf.cloakyard.com</tspan>
    </text>
  </g>

</svg>
